<?xml version="1.0" ?><svg height="58.486374" id="svg8" version="1.1" viewBox="0 0 55.751816 58.486374" width="55.751816" xmlns="http://www.w3.org/2000/svg" xmlns:cc="http://creativecommons.org/ns#" xmlns:dc="http://purl.org/dc/elements/1.1/" xmlns:rdf="http://www.w3.org/1999/02/22-rdf-syntax-ns#" xmlns:svg="http://www.w3.org/2000/svg"><defs id="defs2"/><g id="layer2" transform="translate(-390.49879,-89.001185)"><g id="icon_clean" style="fill:#000000;stroke:none;stroke-width:0.79979998" transform="matrix(1.250615,0,0,1.2500071,-108.51384,-15.750385)"><path d="m 415.53125,95.6875 c -0.76909,-1.74e-4 -1.53674,0.292286 -2.11914,0.875 -1.16482,1.165425 -1.16493,3.076636 0,4.24219 a 0.79979497,0.79979497 0 0 0 1.13086,0 0.79979497,0.79979497 0 0 0 0,-1.130862 c -0.55834,-0.558634 -0.55763,-1.424506 0,-1.982422 0.55761,-0.557911 1.42019,-0.556673 1.97851,0.002 l 11.66407,11.669924 a 0.79979497,0.79979497 0 0 0 1.13086,0.002 0.79979497,0.79979497 0 0 0 0.002,-1.13281 L 417.65234,96.5625 c -0.58246,-0.582776 -1.352,-0.874826 -2.12109,-0.875 z" id="path5535" style="color:#000000;font-style:normal;font-variant:normal;font-weight:normal;font-stretch:normal;font-size:medium;line-height:normal;font-family:sans-serif;font-variant-ligatures:normal;font-variant-position:normal;font-variant-caps:normal;font-variant-numeric:normal;font-variant-alternates:normal;font-feature-settings:normal;text-indent:0;text-align:start;text-decoration:none;text-decoration-line:none;text-decoration-style:solid;text-decoration-color:#000000;letter-spacing:normal;word-spacing:normal;text-transform:none;writing-mode:lr-tb;direction:ltr;text-orientation:mixed;dominant-baseline:auto;baseline-shift:baseline;text-anchor:start;white-space:normal;shape-padding:0;clip-rule:nonzero;display:inline;overflow:visible;visibility:visible;opacity:1;isolation:auto;mix-blend-mode:normal;color-interpolation:sRGB;color-interpolation-filters:linearRGB;solid-color:#000000;solid-opacity:1;vector-effect:none;fill:#000000;fill-opacity:1;fill-rule:nonzero;stroke:none;stroke-width:1.59958994;stroke-linecap:round;stroke-linejoin:round;stroke-miterlimit:4;stroke-dasharray:none;stroke-dashoffset:0;stroke-opacity:1;color-rendering:auto;image-rendering:auto;shape-rendering:auto;text-rendering:auto;enable-background:accumulate"/><path d="m 409.93555,96.310547 c -0.76909,-1.74e-4 -1.53869,0.290333 -2.1211,0.873047 -1.16481,1.165424 -1.16297,3.076636 0.002,4.242186 l 7.77539,7.78125 a 0.79979497,0.79979497 0 0 0 1.13086,0 0.79979497,0.79979497 0 0 0 0.002,-1.13086 l -7.77734,-7.78125 c -0.55834,-0.558627 -0.55763,-1.422551 0,-1.980467 0.55761,-0.557911 1.42018,-0.558626 1.97851,0 l 11.66406,11.671877 a 0.79979497,0.79979497 0 0 0 1.13086,0 0.79979497,0.79979497 0 0 0 0,-1.13086 L 412.05664,97.183594 c -0.58246,-0.582775 -1.35201,-0.872874 -2.12109,-0.873047 z" id="path5539" style="color:#000000;font-style:normal;font-variant:normal;font-weight:normal;font-stretch:normal;font-size:medium;line-height:normal;font-family:sans-serif;font-variant-ligatures:normal;font-variant-position:normal;font-variant-caps:normal;font-variant-numeric:normal;font-variant-alternates:normal;font-feature-settings:normal;text-indent:0;text-align:start;text-decoration:none;text-decoration-line:none;text-decoration-style:solid;text-decoration-color:#000000;letter-spacing:normal;word-spacing:normal;text-transform:none;writing-mode:lr-tb;direction:ltr;text-orientation:mixed;dominant-baseline:auto;baseline-shift:baseline;text-anchor:start;white-space:normal;shape-padding:0;clip-rule:nonzero;display:inline;overflow:visible;visibility:visible;opacity:1;isolation:auto;mix-blend-mode:normal;color-interpolation:sRGB;color-interpolation-filters:linearRGB;solid-color:#000000;solid-opacity:1;vector-effect:none;fill:#000000;fill-opacity:1;fill-rule:nonzero;stroke:none;stroke-width:1.59958994;stroke-linecap:round;stroke-linejoin:round;stroke-miterlimit:4;stroke-dasharray:none;stroke-dashoffset:0;stroke-opacity:1;color-rendering:auto;image-rendering:auto;shape-rendering:auto;text-rendering:auto;enable-background:accumulate"/><path d="m 409.00977,101.60547 c -0.76909,-1.7e-4 -1.53869,0.29034 -2.1211,0.87305 -1.16481,1.16541 -1.16299,3.07663 0.002,4.24218 l 9.33204,9.33789 a 0.79979497,0.79979497 0 0 0 1.13086,0 0.79979497,0.79979497 0 0 0 0,-1.13086 l -9.33204,-9.33789 c -0.55833,-0.55863 -0.55761,-1.42256 0,-1.98046 0.55763,-0.55793 1.42018,-0.55669 1.97852,0.002 l 9.33008,9.33594 a 0.79979497,0.79979497 0 0 0 1.13281,0 0.79979497,0.79979497 0 0 0 0,-1.13086 l -9.33203,-9.33594 c -0.58247,-0.58277 -1.35201,-0.87483 -2.12109,-0.875 z" id="path5543" style="color:#000000;font-style:normal;font-variant:normal;font-weight:normal;font-stretch:normal;font-size:medium;line-height:normal;font-family:sans-serif;font-variant-ligatures:normal;font-variant-position:normal;font-variant-caps:normal;font-variant-numeric:normal;font-variant-alternates:normal;font-feature-settings:normal;text-indent:0;text-align:start;text-decoration:none;text-decoration-line:none;text-decoration-style:solid;text-decoration-color:#000000;letter-spacing:normal;word-spacing:normal;text-transform:none;writing-mode:lr-tb;direction:ltr;text-orientation:mixed;dominant-baseline:auto;baseline-shift:baseline;text-anchor:start;white-space:normal;shape-padding:0;clip-rule:nonzero;display:inline;overflow:visible;visibility:visible;opacity:1;isolation:auto;mix-blend-mode:normal;color-interpolation:sRGB;color-interpolation-filters:linearRGB;solid-color:#000000;solid-opacity:1;vector-effect:none;fill:#000000;fill-opacity:1;fill-rule:nonzero;stroke:none;stroke-width:1.59958994;stroke-linecap:round;stroke-linejoin:round;stroke-miterlimit:4;stroke-dasharray:none;stroke-dashoffset:0;stroke-opacity:1;color-rendering:auto;image-rendering:auto;shape-rendering:auto;text-rendering:auto;enable-background:accumulate"/><path d="m 408.38281,107.19922 c -0.76908,-1.8e-4 -1.53673,0.29228 -2.11914,0.875 -1.16481,1.16542 -1.16493,3.07664 0,4.24219 l 7.77735,7.77929 a 0.79979497,0.79979497 0 0 0 1.13086,0 0.79979497,0.79979497 0 0 0 0,-1.13086 l -7.77735,-7.77929 c -0.55833,-0.55863 -0.55762,-1.42256 0,-1.98047 0.55761,-0.55791 1.42019,-0.55863 1.97852,0 a 0.79979497,0.79979497 0 0 0 1.13086,0 0.79979497,0.79979497 0 0 0 0,-1.13086 c -0.58247,-0.58278 -1.35201,-0.87483 -2.1211,-0.875 z" id="path5547" style="color:#000000;font-style:normal;font-variant:normal;font-weight:normal;font-stretch:normal;font-size:medium;line-height:normal;font-family:sans-serif;font-variant-ligatures:normal;font-variant-position:normal;font-variant-caps:normal;font-variant-numeric:normal;font-variant-alternates:normal;font-feature-settings:normal;text-indent:0;text-align:start;text-decoration:none;text-decoration-line:none;text-decoration-style:solid;text-decoration-color:#000000;letter-spacing:normal;word-spacing:normal;text-transform:none;writing-mode:lr-tb;direction:ltr;text-orientation:mixed;dominant-baseline:auto;baseline-shift:baseline;text-anchor:start;white-space:normal;shape-padding:0;clip-rule:nonzero;display:inline;overflow:visible;visibility:visible;opacity:1;isolation:auto;mix-blend-mode:normal;color-interpolation:sRGB;color-interpolation-filters:linearRGB;solid-color:#000000;solid-opacity:1;vector-effect:none;fill:#000000;fill-opacity:1;fill-rule:nonzero;stroke:none;stroke-width:1.59958994;stroke-linecap:round;stroke-linejoin:round;stroke-miterlimit:4;stroke-dasharray:none;stroke-dashoffset:0;stroke-opacity:1;color-rendering:auto;image-rendering:auto;shape-rendering:auto;text-rendering:auto;enable-background:accumulate"/><path d="m 426.26367,100.20312 c -0.76908,-1.7e-4 -1.53869,0.29034 -2.12109,0.87305 -1.16482,1.16543 -1.16298,3.07664 0.002,4.24219 a 0.79979497,0.79979497 0 0 0 1.13086,0.002 0.79979497,0.79979497 0 0 0 0,-1.13086 c -0.55833,-0.55863 -0.55958,-1.4245 -0.002,-1.98242 0.55761,-0.55791 1.42018,-0.55667 1.97851,0.002 l 6.22266,6.22461 c 0.43081,0.43104 1.1126,1.14713 1.4082,1.89844 0.29561,0.75131 0.35328,1.43136 -0.63086,2.41602 a 0.79979497,0.79979497 0 0 0 0.002,1.13086 0.79979497,0.79979497 0 0 0 1.13086,0 c 1.34767,-1.34839 1.44766,-2.96027 0.98632,-4.13282 -0.46133,-1.17254 -1.3348,-2.01231 -1.76562,-2.44336 l -6.2207,-6.22461 c -0.58247,-0.58277 -1.35201,-0.87482 -2.1211,-0.875 z" id="path5551" style="color:#000000;font-style:normal;font-variant:normal;font-weight:normal;font-stretch:normal;font-size:medium;line-height:normal;font-family:sans-serif;font-variant-ligatures:normal;font-variant-position:normal;font-variant-caps:normal;font-variant-numeric:normal;font-variant-alternates:normal;font-feature-settings:normal;text-indent:0;text-align:start;text-decoration:none;text-decoration-line:none;text-decoration-style:solid;text-decoration-color:#000000;letter-spacing:normal;word-spacing:normal;text-transform:none;writing-mode:lr-tb;direction:ltr;text-orientation:mixed;dominant-baseline:auto;baseline-shift:baseline;text-anchor:start;white-space:normal;shape-padding:0;clip-rule:nonzero;display:inline;overflow:visible;visibility:visible;opacity:1;isolation:auto;mix-blend-mode:normal;color-interpolation:sRGB;color-interpolation-filters:linearRGB;solid-color:#000000;solid-opacity:1;vector-effect:none;fill:#000000;fill-opacity:1;fill-rule:nonzero;stroke:none;stroke-width:1.59958994;stroke-linecap:round;stroke-linejoin:round;stroke-miterlimit:4;stroke-dasharray:none;stroke-dashoffset:0;stroke-opacity:1;color-rendering:auto;image-rendering:auto;shape-rendering:auto;text-rendering:auto;enable-background:accumulate"/><path d="m 410.02734,132.66406 a 1.0002356,0.99974939 0 0 0 -0.0898,0.002 1.0002356,0.99974939 0 0 0 -0.64453,0.29101 1.0002356,0.99974939 0 0 0 0,1.41211 c 1.42205,1.42212 2.72564,2.72823 4.0293,3.83398 0.4065,-0.57562 1.00422,-0.9974 1.69921,-1.19531 -1.33084,-1.08276 -2.73127,-2.46753 -4.31445,-4.05078 a 1.0002356,0.99974939 0 0 0 -0.67969,-0.29297 z m 8.86328,6.5586 C 418.95509,139.47265 419,139.72989 419,140 c 0,0.43927 -0.0922,0.85707 -0.25586,1.23633 0.62852,0.14768 1.27457,0.23616 1.94922,0.23633 a 1.0002356,0.99974939 0 0 0 1.00195,-0.99805 1.0002356,0.99974939 0 0 0 -0.99804,-1.00195 c -0.6264,-1.5e-4 -1.22297,-0.0863 -1.80665,-0.25 z" id="path5555" style="color:#000000;font-style:normal;font-variant:normal;font-weight:normal;font-stretch:normal;font-size:medium;line-height:normal;font-family:sans-serif;font-variant-ligatures:normal;font-variant-position:normal;font-variant-caps:normal;font-variant-numeric:normal;font-variant-alternates:normal;font-feature-settings:normal;text-indent:0;text-align:start;text-decoration:none;text-decoration-line:none;text-decoration-style:solid;text-decoration-color:#000000;letter-spacing:normal;word-spacing:normal;text-transform:none;writing-mode:lr-tb;direction:ltr;text-orientation:mixed;dominant-baseline:auto;baseline-shift:baseline;text-anchor:start;white-space:normal;shape-padding:0;clip-rule:nonzero;display:inline;overflow:visible;visibility:visible;opacity:1;isolation:auto;mix-blend-mode:normal;color-interpolation:sRGB;color-interpolation-filters:linearRGB;solid-color:#000000;solid-opacity:1;vector-effect:none;fill:#000000;fill-opacity:1;fill-rule:nonzero;stroke:none;stroke-width:1.99997997;stroke-linecap:round;stroke-linejoin:round;stroke-miterlimit:4;stroke-dasharray:none;stroke-dashoffset:0;stroke-opacity:1;color-rendering:auto;image-rendering:auto;shape-rendering:auto;text-rendering:auto;enable-background:accumulate" transform="matrix(0.79960659,0,0,0.79999546,86.768382,12.600236)"/><path d="m 434.80664,124.7793 a 1.0002356,0.99974939 0 0 0 -0.73828,0.29297 1.0002356,0.99974939 0 0 0 0,1.41406 l 4.00586,4.00586 c 0.25678,-0.0682 0.52057,-0.11719 0.79883,-0.11719 1.67644,0 3.03304,1.32225 3.11133,2.97852 a 1.0002356,0.99974939 0 0 0 0.20703,-0.15821 1.0002356,0.99974939 0 0 0 0,-1.41406 l -6.70899,-6.70898 a 1.0002356,0.99974939 0 0 0 -0.67578,-0.29297 z" id="path5559" style="color:#000000;font-style:normal;font-variant:normal;font-weight:normal;font-stretch:normal;font-size:medium;line-height:normal;font-family:sans-serif;font-variant-ligatures:normal;font-variant-position:normal;font-variant-caps:normal;font-variant-numeric:normal;font-variant-alternates:normal;font-feature-settings:normal;text-indent:0;text-align:start;text-decoration:none;text-decoration-line:none;text-decoration-style:solid;text-decoration-color:#000000;letter-spacing:normal;word-spacing:normal;text-transform:none;writing-mode:lr-tb;direction:ltr;text-orientation:mixed;dominant-baseline:auto;baseline-shift:baseline;text-anchor:start;white-space:normal;shape-padding:0;clip-rule:nonzero;display:inline;overflow:visible;visibility:visible;opacity:1;isolation:auto;mix-blend-mode:normal;color-interpolation:sRGB;color-interpolation-filters:linearRGB;solid-color:#000000;solid-opacity:1;vector-effect:none;fill:#000000;fill-opacity:1;fill-rule:nonzero;stroke:none;stroke-width:1.99997997;stroke-linecap:round;stroke-linejoin:round;stroke-miterlimit:4;stroke-dasharray:none;stroke-dashoffset:0;stroke-opacity:1;color-rendering:auto;image-rendering:auto;shape-rendering:auto;text-rendering:auto;enable-background:accumulate" transform="matrix(0.79960659,0,0,0.79999546,86.768382,12.600236)"/><path d="m 422.63086,123 a 0.79979497,0.79979497 0 0 0 -0.59375,0.23438 0.79979497,0.79979497 0 0 0 0,1.13085 l 5.98633,5.99024 a 0.79979497,0.79979497 0 0 0 1.13086,0 0.79979497,0.79979497 0 0 0 0.002,-1.13086 l -5.98828,-5.99023 A 0.79979497,0.79979497 0 0 0 422.63086,123 Z" id="path5563" style="color:#000000;font-style:normal;font-variant:normal;font-weight:normal;font-stretch:normal;font-size:medium;line-height:normal;font-family:sans-serif;font-variant-ligatures:normal;font-variant-position:normal;font-variant-caps:normal;font-variant-numeric:normal;font-variant-alternates:normal;font-feature-settings:normal;text-indent:0;text-align:start;text-decoration:none;text-decoration-line:none;text-decoration-style:solid;text-decoration-color:#000000;letter-spacing:normal;word-spacing:normal;text-transform:none;writing-mode:lr-tb;direction:ltr;text-orientation:mixed;dominant-baseline:auto;baseline-shift:baseline;text-anchor:start;white-space:normal;shape-padding:0;clip-rule:nonzero;display:inline;overflow:visible;visibility:visible;opacity:1;isolation:auto;mix-blend-mode:normal;color-interpolation:sRGB;color-interpolation-filters:linearRGB;solid-color:#000000;solid-opacity:1;vector-effect:none;fill:#000000;fill-opacity:1;fill-rule:nonzero;stroke:none;stroke-width:1.59958994;stroke-linecap:round;stroke-linejoin:round;stroke-miterlimit:4;stroke-dasharray:none;stroke-dashoffset:0;stroke-opacity:1;color-rendering:auto;image-rendering:auto;shape-rendering:auto;text-rendering:auto;enable-background:accumulate"/><path d="m 406.8114,96.799809 a 0.99999419,0.999995 0 0 1 -0.99999,0.999996 0.99999419,0.999995 0 0 1 -0.99999,-0.999996 0.99999419,0.999995 0 0 1 0.99999,-0.999994 0.99999419,0.999995 0 0 1 0.99999,0.999994 z" id="path3590" style="vector-effect:none;fill:#000000;fill-opacity:1;stroke:none;stroke-width:1.59958994;stroke-linecap:round;stroke-linejoin:round;stroke-miterlimit:4;stroke-dasharray:none;stroke-dashoffset:0;stroke-opacity:1"/><g id="g5527" style="opacity:1;fill:#000000;stroke:none"><path d="m 438.5957,102.09961 c -1.81295,0 -3.30078,1.48783 -3.30078,3.30078 0,1.81295 1.48783,3.29883 3.30078,3.29883 1.81296,0 3.29883,-1.48588 3.29883,-3.29883 0,-1.81295 -1.48587,-3.30078 -3.29883,-3.30078 z m 0,1.59961 c 0.94847,0 1.69922,0.7527 1.69922,1.70117 0,0.94847 -0.75075,1.69922 -1.69922,1.69922 -0.94847,0 -1.70117,-0.75075 -1.70117,-1.69922 0,-0.94847 0.7527,-1.70117 1.70117,-1.70117 z" id="path5531" style="color:#000000;font-style:normal;font-variant:normal;font-weight:normal;font-stretch:normal;font-size:medium;line-height:normal;font-family:sans-serif;font-variant-ligatures:normal;font-variant-position:normal;font-variant-caps:normal;font-variant-numeric:normal;font-variant-alternates:normal;font-feature-settings:normal;text-indent:0;text-align:start;text-decoration:none;text-decoration-line:none;text-decoration-style:solid;text-decoration-color:#000000;letter-spacing:normal;word-spacing:normal;text-transform:none;writing-mode:lr-tb;direction:ltr;text-orientation:mixed;dominant-baseline:auto;baseline-shift:baseline;text-anchor:start;white-space:normal;shape-padding:0;clip-rule:nonzero;display:inline;overflow:visible;visibility:visible;isolation:auto;mix-blend-mode:normal;color-interpolation:sRGB;color-interpolation-filters:linearRGB;solid-color:#000000;solid-opacity:1;vector-effect:none;fill:#000000;fill-opacity:1;fill-rule:nonzero;stroke:none;stroke-width:1.59958994;stroke-linecap:round;stroke-linejoin:round;stroke-miterlimit:4;stroke-dasharray:none;stroke-dashoffset:0;stroke-opacity:1;color-rendering:auto;image-rendering:auto;shape-rendering:auto;text-rendering:auto;enable-background:accumulate"/></g><path d="m 437.69531,116.09961 c -1.81295,0 -3.30078,1.48783 -3.30078,3.30078 0,1.81295 1.48783,3.29883 3.30078,3.29883 1.81296,0 3.29883,-1.48588 3.29883,-3.29883 0,-1.81295 -1.48587,-3.30078 -3.29883,-3.30078 z m 0,1.59961 c 0.94847,0 1.69922,0.7527 1.69922,1.70117 0,0.94847 -0.75075,1.69922 -1.69922,1.69922 -0.94847,0 -1.70117,-0.75075 -1.70117,-1.69922 0,-0.94847 0.7527,-1.70117 1.70117,-1.70117 z" id="path5525" style="color:#000000;font-style:normal;font-variant:normal;font-weight:normal;font-stretch:normal;font-size:medium;line-height:normal;font-family:sans-serif;font-variant-ligatures:normal;font-variant-position:normal;font-variant-caps:normal;font-variant-numeric:normal;font-variant-alternates:normal;font-feature-settings:normal;text-indent:0;text-align:start;text-decoration:none;text-decoration-line:none;text-decoration-style:solid;text-decoration-color:#000000;letter-spacing:normal;word-spacing:normal;text-transform:none;writing-mode:lr-tb;direction:ltr;text-orientation:mixed;dominant-baseline:auto;baseline-shift:baseline;text-anchor:start;white-space:normal;shape-padding:0;clip-rule:nonzero;display:inline;overflow:visible;visibility:visible;isolation:auto;mix-blend-mode:normal;color-interpolation:sRGB;color-interpolation-filters:linearRGB;solid-color:#000000;solid-opacity:1;vector-effect:none;fill:#000000;fill-opacity:1;fill-rule:nonzero;stroke:none;stroke-width:1.59958994;stroke-linecap:round;stroke-linejoin:round;stroke-miterlimit:4;stroke-dasharray:none;stroke-dashoffset:0;stroke-opacity:1;color-rendering:auto;image-rendering:auto;shape-rendering:auto;text-rendering:auto;enable-background:accumulate"/><path d="m 419.30273,121.30078 c -1.81295,0 -3.29883,1.48588 -3.29882,3.29883 -1e-5,1.81295 1.48587,3.29883 3.29882,3.29883 1.81296,0 3.30079,-1.48588 3.30079,-3.29883 0,-1.81295 -1.48783,-3.29883 -3.30079,-3.29883 z m 0,1.59766 c 0.94847,0 1.70118,0.7527 1.70118,1.70117 0,0.94847 -0.75271,1.70117 -1.70118,1.70117 -0.94847,0 -1.69922,-0.7527 -1.69921,-1.70117 -10e-6,-0.94847 0.75074,-1.70117 1.69921,-1.70117 z" id="path5519" style="color:#000000;font-style:normal;font-variant:normal;font-weight:normal;font-stretch:normal;font-size:medium;line-height:normal;font-family:sans-serif;font-variant-ligatures:normal;font-variant-position:normal;font-variant-caps:normal;font-variant-numeric:normal;font-variant-alternates:normal;font-feature-settings:normal;text-indent:0;text-align:start;text-decoration:none;text-decoration-line:none;text-decoration-style:solid;text-decoration-color:#000000;letter-spacing:normal;word-spacing:normal;text-transform:none;writing-mode:lr-tb;direction:ltr;text-orientation:mixed;dominant-baseline:auto;baseline-shift:baseline;text-anchor:start;white-space:normal;shape-padding:0;clip-rule:nonzero;display:inline;overflow:visible;visibility:visible;isolation:auto;mix-blend-mode:normal;color-interpolation:sRGB;color-interpolation-filters:linearRGB;solid-color:#000000;solid-opacity:1;vector-effect:none;fill:#000000;fill-opacity:1;fill-rule:nonzero;stroke:none;stroke-width:1.59958994;stroke-linecap:round;stroke-linejoin:round;stroke-miterlimit:4;stroke-dasharray:none;stroke-dashoffset:0;stroke-opacity:1;color-rendering:auto;image-rendering:auto;shape-rendering:auto;text-rendering:auto;enable-background:accumulate"/><path d="m 401.01377,109.79974 a 0.99999419,0.999995 0 0 1 -0.99999,0.99999 0.99999419,0.999995 0 0 1 -0.99999,-0.99999 0.99999419,0.999995 0 0 1 0.99999,-1 0.99999419,0.999995 0 0 1 0.99999,1 z" id="path3600" style="vector-effect:none;fill:#000000;fill-opacity:1;stroke:none;stroke-width:1.59958994;stroke-linecap:round;stroke-linejoin:round;stroke-miterlimit:4;stroke-dasharray:none;stroke-dashoffset:0;stroke-opacity:1"/><path d="m 420.40471,91.599782 a 0.99999419,0.999995 0 0 1 -0.99999,1 0.99999419,0.999995 0 0 1 -0.99999,-1 0.99999419,0.999995 0 0 1 0.99999,-0.999993 0.99999419,0.999995 0 0 1 0.99999,0.999993 z" id="path3604" style="vector-effect:none;fill:#000000;fill-opacity:1;stroke:none;stroke-width:1.59958994;stroke-linecap:round;stroke-linejoin:round;stroke-miterlimit:4;stroke-dasharray:none;stroke-dashoffset:0;stroke-opacity:1"/><path d="M 433.99999,98.39964 A 0.99999419,0.999995 0 0 1 433,99.399636 0.99999419,0.999995 0 0 1 432.00001,98.39964 0.99999419,0.999995 0 0 1 433,97.399646 a 0.99999419,0.999995 0 0 1 0.99999,0.999994 z" id="path3606" style="vector-effect:none;fill:#000000;fill-opacity:1;stroke:none;stroke-width:1.59958994;stroke-linecap:round;stroke-linejoin:round;stroke-miterlimit:4;stroke-dasharray:none;stroke-dashoffset:0;stroke-opacity:1"/><path d="m 443.59331,114.59971 a 0.99999419,0.999995 0 0 1 -0.99999,0.99999 0.99999419,0.999995 0 0 1 -0.99999,-0.99999 0.99999419,0.999995 0 0 1 0.99999,-1 0.99999419,0.999995 0 0 1 0.99999,1 z" id="path3608" style="vector-effect:none;fill:#000000;fill-opacity:1;stroke:none;stroke-width:1.59958994;stroke-linecap:round;stroke-linejoin:round;stroke-miterlimit:4;stroke-dasharray:none;stroke-dashoffset:0;stroke-opacity:1"/><path d="m 422.71875,114.9668 a 0.79979497,0.79979497 0 0 0 -0.5918,0.23437 0.79979497,0.79979497 0 0 0 0,1.13086 c 0,0 0.74523,0.76194 1.16797,1.78906 0.42275,1.02712 0.58384,2.11481 -0.60351,3.30274 a 0.79979497,0.79979497 0 0 0 0,1.13086 0.79979497,0.79979497 0 0 0 1.13086,0 c 1.63969,-1.64049 1.51796,-3.66392 0.95117,-5.04102 -0.56679,-1.37709 -1.51563,-2.3125 -1.51563,-2.3125 a 0.79979497,0.79979497 0 0 0 -0.53906,-0.23437 z" id="path5501" style="color:#000000;font-style:normal;font-variant:normal;font-weight:normal;font-stretch:normal;font-size:medium;line-height:normal;font-family:sans-serif;font-variant-ligatures:normal;font-variant-position:normal;font-variant-caps:normal;font-variant-numeric:normal;font-variant-alternates:normal;font-feature-settings:normal;text-indent:0;text-align:start;text-decoration:none;text-decoration-line:none;text-decoration-style:solid;text-decoration-color:#000000;letter-spacing:normal;word-spacing:normal;text-transform:none;writing-mode:lr-tb;direction:ltr;text-orientation:mixed;dominant-baseline:auto;baseline-shift:baseline;text-anchor:start;white-space:normal;shape-padding:0;clip-rule:nonzero;display:inline;overflow:visible;visibility:visible;opacity:1;isolation:auto;mix-blend-mode:normal;color-interpolation:sRGB;color-interpolation-filters:linearRGB;solid-color:#000000;solid-opacity:1;vector-effect:none;fill:#000000;fill-opacity:1;fill-rule:nonzero;stroke:none;stroke-width:1.59958994;stroke-linecap:round;stroke-linejoin:round;stroke-miterlimit:4;stroke-dasharray:none;stroke-dashoffset:0;stroke-opacity:1;color-rendering:auto;image-rendering:auto;shape-rendering:auto;text-rendering:auto;enable-background:accumulate"/><path d="m 422.71875,114.9668 a 0.79979497,0.79979497 0 0 0 -0.5918,0.23437 0.79979497,0.79979497 0 0 0 0,1.13086 c 0,0 0.93394,0.95044 2.31055,1.51758 1.37661,0.56714 3.39937,0.68931 5.03906,-0.95117 a 0.79979497,0.79979497 0 0 0 0,-1.13086 0.79979497,0.79979497 0 0 0 -1.13086,0 c -1.18735,1.18792 -2.27238,1.02639 -3.29882,0.60351 -1.02645,-0.42287 -1.78907,-1.16992 -1.78907,-1.16992 a 0.79979497,0.79979497 0 0 0 -0.53906,-0.23437 z" id="path5505" style="color:#000000;font-style:normal;font-variant:normal;font-weight:normal;font-stretch:normal;font-size:medium;line-height:normal;font-family:sans-serif;font-variant-ligatures:normal;font-variant-position:normal;font-variant-caps:normal;font-variant-numeric:normal;font-variant-alternates:normal;font-feature-settings:normal;text-indent:0;text-align:start;text-decoration:none;text-decoration-line:none;text-decoration-style:solid;text-decoration-color:#000000;letter-spacing:normal;word-spacing:normal;text-transform:none;writing-mode:lr-tb;direction:ltr;text-orientation:mixed;dominant-baseline:auto;baseline-shift:baseline;text-anchor:start;white-space:normal;shape-padding:0;clip-rule:nonzero;display:inline;overflow:visible;visibility:visible;opacity:1;isolation:auto;mix-blend-mode:normal;color-interpolation:sRGB;color-interpolation-filters:linearRGB;solid-color:#000000;solid-opacity:1;vector-effect:none;fill:#000000;fill-opacity:1;fill-rule:nonzero;stroke:none;stroke-width:1.59958994;stroke-linecap:round;stroke-linejoin:round;stroke-miterlimit:4;stroke-dasharray:none;stroke-dashoffset:0;stroke-opacity:1;color-rendering:auto;image-rendering:auto;shape-rendering:auto;text-rendering:auto;enable-background:accumulate"/><path d="m 425.31055,120.12109 c -0.88304,0.10379 -1.7993,0.4825 -2.61914,1.30274 a 0.79979497,0.79979497 0 0 0 0,1.13086 0.79979497,0.79979497 0 0 0 1.13086,0 c 1.18735,-1.18793 2.27434,-1.02639 3.30078,-0.60352 1.02644,0.42288 1.78906,1.16992 1.78906,1.16992 a 0.79979497,0.79979497 0 0 0 1.13086,0 0.79979497,0.79979497 0 0 0 0,-1.13086 c 0,0 -0.93394,-0.95044 -2.31055,-1.51757 -0.6883,-0.28357 -1.53884,-0.45536 -2.42187,-0.35157 z" id="path5509" style="color:#000000;font-style:normal;font-variant:normal;font-weight:normal;font-stretch:normal;font-size:medium;line-height:normal;font-family:sans-serif;font-variant-ligatures:normal;font-variant-position:normal;font-variant-caps:normal;font-variant-numeric:normal;font-variant-alternates:normal;font-feature-settings:normal;text-indent:0;text-align:start;text-decoration:none;text-decoration-line:none;text-decoration-style:solid;text-decoration-color:#000000;letter-spacing:normal;word-spacing:normal;text-transform:none;writing-mode:lr-tb;direction:ltr;text-orientation:mixed;dominant-baseline:auto;baseline-shift:baseline;text-anchor:start;white-space:normal;shape-padding:0;clip-rule:nonzero;display:inline;overflow:visible;visibility:visible;opacity:1;isolation:auto;mix-blend-mode:normal;color-interpolation:sRGB;color-interpolation-filters:linearRGB;solid-color:#000000;solid-opacity:1;vector-effect:none;fill:#000000;fill-opacity:1;fill-rule:nonzero;stroke:none;stroke-width:1.59958994;stroke-linecap:round;stroke-linejoin:round;stroke-miterlimit:4;stroke-dasharray:none;stroke-dashoffset:0;stroke-opacity:1;color-rendering:auto;image-rendering:auto;shape-rendering:auto;text-rendering:auto;enable-background:accumulate"/><path d="m 428.9375,115.5332 a 0.79979497,0.79979497 0 0 0 -0.5918,0.23438 c -1.63969,1.64048 -1.51796,3.66392 -0.95117,5.04101 0.56679,1.3771 1.51758,2.3125 1.51758,2.3125 a 0.79979497,0.79979497 0 0 0 1.13086,0 0.79979497,0.79979497 0 0 0 0,-1.13086 c 0,0 -0.74718,-0.76389 -1.16992,-1.79101 -0.42275,-1.02712 -0.58384,-2.11286 0.60351,-3.30078 a 0.79979497,0.79979497 0 0 0 0,-1.13086 0.79979497,0.79979497 0 0 0 -0.53906,-0.23438 z" id="path5513" style="color:#000000;font-style:normal;font-variant:normal;font-weight:normal;font-stretch:normal;font-size:medium;line-height:normal;font-family:sans-serif;font-variant-ligatures:normal;font-variant-position:normal;font-variant-caps:normal;font-variant-numeric:normal;font-variant-alternates:normal;font-feature-settings:normal;text-indent:0;text-align:start;text-decoration:none;text-decoration-line:none;text-decoration-style:solid;text-decoration-color:#000000;letter-spacing:normal;word-spacing:normal;text-transform:none;writing-mode:lr-tb;direction:ltr;text-orientation:mixed;dominant-baseline:auto;baseline-shift:baseline;text-anchor:start;white-space:normal;shape-padding:0;clip-rule:nonzero;display:inline;overflow:visible;visibility:visible;opacity:1;isolation:auto;mix-blend-mode:normal;color-interpolation:sRGB;color-interpolation-filters:linearRGB;solid-color:#000000;solid-opacity:1;vector-effect:none;fill:#000000;fill-opacity:1;fill-rule:nonzero;stroke:none;stroke-width:1.59958994;stroke-linecap:round;stroke-linejoin:round;stroke-miterlimit:4;stroke-dasharray:none;stroke-dashoffset:0;stroke-opacity:1;color-rendering:auto;image-rendering:auto;shape-rendering:auto;text-rendering:auto;enable-background:accumulate"/><path d="m 410.60938,83.800781 a 0.79979497,0.79979497 0 0 0 -0.80079,0.798828 c 0,0 -0.0105,1.066442 -0.4375,2.091797 -0.427,1.025355 -1.08083,1.908203 -2.75976,1.908203 a 0.79979497,0.79979497 0 0 0 -0.80078,0.800782 0.79979497,0.79979497 0 0 0 0.80078,0.798828 c 2.3191,0 3.66382,-1.517848 4.23633,-2.892578 0.5725,-1.374731 0.56054,-2.707032 0.56054,-2.707032 a 0.79979497,0.79979497 0 0 0 -0.79882,-0.798828 z" id="path5485" style="color:#000000;font-style:normal;font-variant:normal;font-weight:normal;font-stretch:normal;font-size:medium;line-height:normal;font-family:sans-serif;font-variant-ligatures:normal;font-variant-position:normal;font-variant-caps:normal;font-variant-numeric:normal;font-variant-alternates:normal;font-feature-settings:normal;text-indent:0;text-align:start;text-decoration:none;text-decoration-line:none;text-decoration-style:solid;text-decoration-color:#000000;letter-spacing:normal;word-spacing:normal;text-transform:none;writing-mode:lr-tb;direction:ltr;text-orientation:mixed;dominant-baseline:auto;baseline-shift:baseline;text-anchor:start;white-space:normal;shape-padding:0;clip-rule:nonzero;display:inline;overflow:visible;visibility:visible;opacity:1;isolation:auto;mix-blend-mode:normal;color-interpolation:sRGB;color-interpolation-filters:linearRGB;solid-color:#000000;solid-opacity:1;vector-effect:none;fill:#000000;fill-opacity:1;fill-rule:nonzero;stroke:none;stroke-width:1.59958994;stroke-linecap:round;stroke-linejoin:round;stroke-miterlimit:4;stroke-dasharray:none;stroke-dashoffset:0;stroke-opacity:1;color-rendering:auto;image-rendering:auto;shape-rendering:auto;text-rendering:auto;enable-background:accumulate"/><path d="m 410.60938,83.800781 a 0.79979497,0.79979497 0 0 0 -0.80079,0.798828 c 0,0 -0.01,1.332301 0.5625,2.707032 0.57251,1.37473 1.91723,2.892578 4.23633,2.892578 a 0.79979497,0.79979497 0 0 0 0.79883,-0.798828 0.79979497,0.79979497 0 0 0 -0.79883,-0.800782 c -1.67893,0 -2.33276,-0.882848 -2.75976,-1.908203 -0.42701,-1.025354 -0.43946,-2.091797 -0.43946,-2.091797 a 0.79979497,0.79979497 0 0 0 -0.79882,-0.798828 z" id="path5489" style="color:#000000;font-style:normal;font-variant:normal;font-weight:normal;font-stretch:normal;font-size:medium;line-height:normal;font-family:sans-serif;font-variant-ligatures:normal;font-variant-position:normal;font-variant-caps:normal;font-variant-numeric:normal;font-variant-alternates:normal;font-feature-settings:normal;text-indent:0;text-align:start;text-decoration:none;text-decoration-line:none;text-decoration-style:solid;text-decoration-color:#000000;letter-spacing:normal;word-spacing:normal;text-transform:none;writing-mode:lr-tb;direction:ltr;text-orientation:mixed;dominant-baseline:auto;baseline-shift:baseline;text-anchor:start;white-space:normal;shape-padding:0;clip-rule:nonzero;display:inline;overflow:visible;visibility:visible;opacity:1;isolation:auto;mix-blend-mode:normal;color-interpolation:sRGB;color-interpolation-filters:linearRGB;solid-color:#000000;solid-opacity:1;vector-effect:none;fill:#000000;fill-opacity:1;fill-rule:nonzero;stroke:none;stroke-width:1.59958994;stroke-linecap:round;stroke-linejoin:round;stroke-miterlimit:4;stroke-dasharray:none;stroke-dashoffset:0;stroke-opacity:1;color-rendering:auto;image-rendering:auto;shape-rendering:auto;text-rendering:auto;enable-background:accumulate"/><path d="m 406.61133,88.599609 a 0.79979497,0.79979497 0 0 0 -0.80078,0.800782 0.79979497,0.79979497 0 0 0 0.80078,0.798828 c 1.67893,0 2.33276,0.882848 2.75976,1.908203 0.42701,1.025355 0.4375,2.091797 0.4375,2.091797 A 0.79979497,0.79979497 0 0 0 410.60938,95 0.79979497,0.79979497 0 0 0 411.4082,94.199219 c 0,0 0.012,-1.332301 -0.56054,-2.707031 -0.57251,-1.374731 -1.91723,-2.892579 -4.23633,-2.892579 z" id="path5493" style="color:#000000;font-style:normal;font-variant:normal;font-weight:normal;font-stretch:normal;font-size:medium;line-height:normal;font-family:sans-serif;font-variant-ligatures:normal;font-variant-position:normal;font-variant-caps:normal;font-variant-numeric:normal;font-variant-alternates:normal;font-feature-settings:normal;text-indent:0;text-align:start;text-decoration:none;text-decoration-line:none;text-decoration-style:solid;text-decoration-color:#000000;letter-spacing:normal;word-spacing:normal;text-transform:none;writing-mode:lr-tb;direction:ltr;text-orientation:mixed;dominant-baseline:auto;baseline-shift:baseline;text-anchor:start;white-space:normal;shape-padding:0;clip-rule:nonzero;display:inline;overflow:visible;visibility:visible;opacity:1;isolation:auto;mix-blend-mode:normal;color-interpolation:sRGB;color-interpolation-filters:linearRGB;solid-color:#000000;solid-opacity:1;vector-effect:none;fill:#000000;fill-opacity:1;fill-rule:nonzero;stroke:none;stroke-width:1.59958994;stroke-linecap:round;stroke-linejoin:round;stroke-miterlimit:4;stroke-dasharray:none;stroke-dashoffset:0;stroke-opacity:1;color-rendering:auto;image-rendering:auto;shape-rendering:auto;text-rendering:auto;enable-background:accumulate"/><path d="m 414.60742,88.599609 c -2.3191,0 -3.66382,1.517848 -4.23633,2.892579 -0.5725,1.37473 -0.5625,2.707031 -0.5625,2.707031 A 0.79979497,0.79979497 0 0 0 410.60938,95 0.79979497,0.79979497 0 0 0 411.4082,94.199219 c 0,0 0.0125,-1.066443 0.43946,-2.091797 0.427,-1.025355 1.08083,-1.908203 2.75976,-1.908203 a 0.79979497,0.79979497 0 0 0 0.79883,-0.798828 0.79979497,0.79979497 0 0 0 -0.79883,-0.800782 z" id="path5497" style="color:#000000;font-style:normal;font-variant:normal;font-weight:normal;font-stretch:normal;font-size:medium;line-height:normal;font-family:sans-serif;font-variant-ligatures:normal;font-variant-position:normal;font-variant-caps:normal;font-variant-numeric:normal;font-variant-alternates:normal;font-feature-settings:normal;text-indent:0;text-align:start;text-decoration:none;text-decoration-line:none;text-decoration-style:solid;text-decoration-color:#000000;letter-spacing:normal;word-spacing:normal;text-transform:none;writing-mode:lr-tb;direction:ltr;text-orientation:mixed;dominant-baseline:auto;baseline-shift:baseline;text-anchor:start;white-space:normal;shape-padding:0;clip-rule:nonzero;display:inline;overflow:visible;visibility:visible;opacity:1;isolation:auto;mix-blend-mode:normal;color-interpolation:sRGB;color-interpolation-filters:linearRGB;solid-color:#000000;solid-opacity:1;vector-effect:none;fill:#000000;fill-opacity:1;fill-rule:nonzero;stroke:none;stroke-width:1.59958994;stroke-linecap:round;stroke-linejoin:round;stroke-miterlimit:4;stroke-dasharray:none;stroke-dashoffset:0;stroke-opacity:1;color-rendering:auto;image-rendering:auto;shape-rendering:auto;text-rendering:auto;enable-background:accumulate"/><path d="m 405.81055,115 a 0.79979497,0.79979497 0 0 0 -0.79883,0.79883 c 0,0 -0.0105,1.06839 -0.4375,2.09375 -0.42701,1.02535 -1.08279,1.9082 -2.76172,1.9082 a 0.79979497,0.79979497 0 0 0 -0.79883,0.79883 0.79979497,0.79979497 0 0 0 0.79883,0.80078 c 2.3191,0 3.66578,-1.51785 4.23828,-2.89258 0.5725,-1.37473 0.56055,-2.70898 0.56055,-2.70898 A 0.79979497,0.79979497 0 0 0 405.81055,115 Z" id="path5469" style="color:#000000;font-style:normal;font-variant:normal;font-weight:normal;font-stretch:normal;font-size:medium;line-height:normal;font-family:sans-serif;font-variant-ligatures:normal;font-variant-position:normal;font-variant-caps:normal;font-variant-numeric:normal;font-variant-alternates:normal;font-feature-settings:normal;text-indent:0;text-align:start;text-decoration:none;text-decoration-line:none;text-decoration-style:solid;text-decoration-color:#000000;letter-spacing:normal;word-spacing:normal;text-transform:none;writing-mode:lr-tb;direction:ltr;text-orientation:mixed;dominant-baseline:auto;baseline-shift:baseline;text-anchor:start;white-space:normal;shape-padding:0;clip-rule:nonzero;display:inline;overflow:visible;visibility:visible;opacity:1;isolation:auto;mix-blend-mode:normal;color-interpolation:sRGB;color-interpolation-filters:linearRGB;solid-color:#000000;solid-opacity:1;vector-effect:none;fill:#000000;fill-opacity:1;fill-rule:nonzero;stroke:none;stroke-width:1.59958994;stroke-linecap:round;stroke-linejoin:round;stroke-miterlimit:4;stroke-dasharray:none;stroke-dashoffset:0;stroke-opacity:1;color-rendering:auto;image-rendering:auto;shape-rendering:auto;text-rendering:auto;enable-background:accumulate"/><path d="m 405.81055,115 a 0.79979497,0.79979497 0 0 0 -0.79883,0.79883 c 0,0 -0.012,1.33425 0.56055,2.70898 0.5725,1.37473 1.91722,2.89258 4.23632,2.89258 a 0.79979497,0.79979497 0 0 0 0.80079,-0.80078 0.79979497,0.79979497 0 0 0 -0.80079,-0.79883 c -1.67892,0 -2.33276,-0.88285 -2.75976,-1.9082 -0.42701,-1.02536 -0.4375,-2.09375 -0.4375,-2.09375 A 0.79979497,0.79979497 0 0 0 405.81055,115 Z" id="path5473" style="color:#000000;font-style:normal;font-variant:normal;font-weight:normal;font-stretch:normal;font-size:medium;line-height:normal;font-family:sans-serif;font-variant-ligatures:normal;font-variant-position:normal;font-variant-caps:normal;font-variant-numeric:normal;font-variant-alternates:normal;font-feature-settings:normal;text-indent:0;text-align:start;text-decoration:none;text-decoration-line:none;text-decoration-style:solid;text-decoration-color:#000000;letter-spacing:normal;word-spacing:normal;text-transform:none;writing-mode:lr-tb;direction:ltr;text-orientation:mixed;dominant-baseline:auto;baseline-shift:baseline;text-anchor:start;white-space:normal;shape-padding:0;clip-rule:nonzero;display:inline;overflow:visible;visibility:visible;opacity:1;isolation:auto;mix-blend-mode:normal;color-interpolation:sRGB;color-interpolation-filters:linearRGB;solid-color:#000000;solid-opacity:1;vector-effect:none;fill:#000000;fill-opacity:1;fill-rule:nonzero;stroke:none;stroke-width:1.59958994;stroke-linecap:round;stroke-linejoin:round;stroke-miterlimit:4;stroke-dasharray:none;stroke-dashoffset:0;stroke-opacity:1;color-rendering:auto;image-rendering:auto;shape-rendering:auto;text-rendering:auto;enable-background:accumulate"/><path d="m 401.8125,119.80078 a 0.79979497,0.79979497 0 0 0 -0.79883,0.79883 0.79979497,0.79979497 0 0 0 0.79883,0.80078 c 1.67893,0 2.33471,0.8809 2.76172,1.90625 0.427,1.02536 0.4375,2.09375 0.4375,2.09375 a 0.79979497,0.79979497 0 0 0 0.79883,0.79883 0.79979497,0.79979497 0 0 0 0.80078,-0.79883 c 0,0 0.012,-1.33425 -0.56055,-2.70898 -0.5725,-1.37473 -1.91918,-2.89063 -4.23828,-2.89063 z" id="path5477" style="color:#000000;font-style:normal;font-variant:normal;font-weight:normal;font-stretch:normal;font-size:medium;line-height:normal;font-family:sans-serif;font-variant-ligatures:normal;font-variant-position:normal;font-variant-caps:normal;font-variant-numeric:normal;font-variant-alternates:normal;font-feature-settings:normal;text-indent:0;text-align:start;text-decoration:none;text-decoration-line:none;text-decoration-style:solid;text-decoration-color:#000000;letter-spacing:normal;word-spacing:normal;text-transform:none;writing-mode:lr-tb;direction:ltr;text-orientation:mixed;dominant-baseline:auto;baseline-shift:baseline;text-anchor:start;white-space:normal;shape-padding:0;clip-rule:nonzero;display:inline;overflow:visible;visibility:visible;opacity:1;isolation:auto;mix-blend-mode:normal;color-interpolation:sRGB;color-interpolation-filters:linearRGB;solid-color:#000000;solid-opacity:1;vector-effect:none;fill:#000000;fill-opacity:1;fill-rule:nonzero;stroke:none;stroke-width:1.59958994;stroke-linecap:round;stroke-linejoin:round;stroke-miterlimit:4;stroke-dasharray:none;stroke-dashoffset:0;stroke-opacity:1;color-rendering:auto;image-rendering:auto;shape-rendering:auto;text-rendering:auto;enable-background:accumulate"/><path d="m 409.80859,119.80078 c -2.3191,0 -3.66382,1.5159 -4.23632,2.89063 -0.57251,1.37473 -0.56055,2.70898 -0.56055,2.70898 a 0.79979497,0.79979497 0 0 0 0.79883,0.79883 0.79979497,0.79979497 0 0 0 0.80078,-0.79883 c 0,0 0.0105,-1.06839 0.4375,-2.09375 0.427,-1.02535 1.08084,-1.90625 2.75976,-1.90625 a 0.79979497,0.79979497 0 0 0 0.80079,-0.80078 0.79979497,0.79979497 0 0 0 -0.80079,-0.79883 z" id="path5481" style="color:#000000;font-style:normal;font-variant:normal;font-weight:normal;font-stretch:normal;font-size:medium;line-height:normal;font-family:sans-serif;font-variant-ligatures:normal;font-variant-position:normal;font-variant-caps:normal;font-variant-numeric:normal;font-variant-alternates:normal;font-feature-settings:normal;text-indent:0;text-align:start;text-decoration:none;text-decoration-line:none;text-decoration-style:solid;text-decoration-color:#000000;letter-spacing:normal;word-spacing:normal;text-transform:none;writing-mode:lr-tb;direction:ltr;text-orientation:mixed;dominant-baseline:auto;baseline-shift:baseline;text-anchor:start;white-space:normal;shape-padding:0;clip-rule:nonzero;display:inline;overflow:visible;visibility:visible;opacity:1;isolation:auto;mix-blend-mode:normal;color-interpolation:sRGB;color-interpolation-filters:linearRGB;solid-color:#000000;solid-opacity:1;vector-effect:none;fill:#000000;fill-opacity:1;fill-rule:nonzero;stroke:none;stroke-width:1.59958994;stroke-linecap:round;stroke-linejoin:round;stroke-miterlimit:4;stroke-dasharray:none;stroke-dashoffset:0;stroke-opacity:1;color-rendering:auto;image-rendering:auto;shape-rendering:auto;text-rendering:auto;enable-background:accumulate"/></g></g></svg>