<?xml version="1.0" ?><svg height="64" id="svg8" version="1.1" viewBox="0 0 64 64" width="64" xmlns="http://www.w3.org/2000/svg" xmlns:cc="http://creativecommons.org/ns#" xmlns:dc="http://purl.org/dc/elements/1.1/" xmlns:inkscape="http://www.inkscape.org/namespaces/inkscape" xmlns:rdf="http://www.w3.org/1999/02/22-rdf-syntax-ns#" xmlns:sodipodi="http://sodipodi.sourceforge.net/DTD/sodipodi-0.dtd" xmlns:svg="http://www.w3.org/2000/svg"><defs id="defs2"/><g id="g3068"><path d="m 13.359375,16.050781 c -1.212964,0 -2.282989,0.653181 -2.994141,1.585938 -0.711151,0.932756 -1.113281,2.158305 -1.113281,3.492187 v 21.742188 c 0,1.239752 0.224504,2.302685 0.880859,3.144531 0.656356,0.841846 1.60942,1.361311 2.853516,1.861328 a 1.000105,1.000105 0 0 0 0.06055,0.02148 c 0,0 3.112671,1.026993 7.019531,2.054687 3.906861,1.027694 8.576591,2.072266 11.943361,2.072266 3.36676,0 8.03454,-1.044572 11.9414,-2.072266 3.90686,-1.027694 7.02149,-2.054687 7.02149,-2.054687 a 1.000105,1.000105 0 0 0 0.0625,-0.02344 c 1.23391,-0.499885 2.18588,-1.017705 2.84375,-1.857422 0.65786,-0.839716 0.88867,-1.903974 0.88867,-3.146484 V 21.128906 c 0,-1.334273 -0.39835,-2.579399 -1.10938,-3.53125 -0.71102,-0.951851 -1.81931,-1.634267 -3.07226,-1.542968 a 1.000105,1.000105 0 0 0 -0.0352,0.002 c 0,0 -12.46042,1.353515 -18.54101,1.353515 -6.080603,0 -18.541017,-1.353515 -18.541017,-1.353515 a 1.000105,1.000105 0 0 0 -0.109375,-0.0059 z m 37.373045,1.998047 c 0.46638,-0.03398 0.91095,0.192845 1.32422,0.746094 0.41327,0.553248 0.71094,1.409686 0.71094,2.333984 v 21.742188 c 0,1.016059 -0.1519,1.517105 -0.46289,1.914062 -0.30858,0.393871 -0.91509,0.782391 -2.00586,1.226563 -0.0412,0.01358 -3.0392,1.003947 -6.85547,2.007812 -3.84236,1.010727 -8.49809,2.00586 -11.43359,2.00586 -2.93551,0 -7.591239,-0.995133 -11.433598,-2.00586 C 16.7556,47.014535 13.747322,46.021124 13.712891,46.009766 12.617732,45.56676 12.013858,45.178143 11.708984,44.787109 11.401152,44.392282 11.251953,43.889912 11.251953,42.871094 V 21.128906 c 0,-0.924688 0.29064,-1.738274 0.703125,-2.279297 0.410259,-0.538101 0.890499,-0.792164 1.396484,-0.794921 0.174375,0.01918 12.33199,1.355468 18.658208,1.355468 6.35557,0 18.66055,-1.354489 18.72265,-1.361328 z" id="path3334" style="color:#000000;font-style:normal;font-variant:normal;font-weight:normal;font-stretch:normal;font-size:medium;line-height:normal;font-family:sans-serif;font-variant-ligatures:normal;font-variant-position:normal;font-variant-caps:normal;font-variant-numeric:normal;font-variant-alternates:normal;font-feature-settings:normal;text-indent:0;text-align:start;text-decoration:none;text-decoration-line:none;text-decoration-style:solid;text-decoration-color:#000000;letter-spacing:normal;word-spacing:normal;text-transform:none;writing-mode:lr-tb;direction:ltr;text-orientation:mixed;dominant-baseline:auto;baseline-shift:baseline;text-anchor:start;white-space:normal;shape-padding:0;clip-rule:nonzero;display:inline;overflow:visible;visibility:visible;isolation:auto;mix-blend-mode:normal;color-interpolation:sRGB;color-interpolation-filters:linearRGB;solid-color:#000000;solid-opacity:1;vector-effect:none;fill:#000000;fill-opacity:1;fill-rule:nonzero;stroke:none;stroke-width:2.00001;stroke-linecap:round;stroke-linejoin:round;stroke-miterlimit:4;stroke-dasharray:none;stroke-dashoffset:0;stroke-opacity:1;color-rendering:auto;image-rendering:auto;shape-rendering:auto;text-rendering:auto;enable-background:accumulate"/><path d="m 16.429688,24.205078 a 1.000005,1.000005 0 0 0 -0.953126,0.869141 1.000005,1.000005 0 0 0 0.861329,1.123047 c 0,0 10.30544,1.367187 15.671879,1.367187 5.36643,0 15.67187,-1.367187 15.67187,-1.367187 a 1.000005,1.000005 0 0 0 0.86133,-1.123047 1.000005,1.000005 0 0 0 -1.12305,-0.861328 c 0,0 -10.39271,1.351562 -15.41015,1.351562 -5.017448,0 -15.412114,-1.351562 -15.412114,-1.351562 a 1.000005,1.000005 0 0 0 -0.167968,-0.0078 z" id="path3338" style="color:#000000;font-style:normal;font-variant:normal;font-weight:normal;font-stretch:normal;font-size:medium;line-height:normal;font-family:sans-serif;font-variant-ligatures:normal;font-variant-position:normal;font-variant-caps:normal;font-variant-numeric:normal;font-variant-alternates:normal;font-feature-settings:normal;text-indent:0;text-align:start;text-decoration:none;text-decoration-line:none;text-decoration-style:solid;text-decoration-color:#000000;letter-spacing:normal;word-spacing:normal;text-transform:none;writing-mode:lr-tb;direction:ltr;text-orientation:mixed;dominant-baseline:auto;baseline-shift:baseline;text-anchor:start;white-space:normal;shape-padding:0;clip-rule:nonzero;display:inline;overflow:visible;visibility:visible;isolation:auto;mix-blend-mode:normal;color-interpolation:sRGB;color-interpolation-filters:linearRGB;solid-color:#000000;solid-opacity:1;vector-effect:none;fill:#000000;fill-opacity:1;fill-rule:nonzero;stroke:none;stroke-width:2.00001;stroke-linecap:round;stroke-linejoin:round;stroke-miterlimit:4;stroke-dasharray:none;stroke-dashoffset:0;stroke-opacity:1;color-rendering:auto;image-rendering:auto;shape-rendering:auto;text-rendering:auto;enable-background:accumulate"/><path d="m 16.429688,31 a 1.000005,1.000005 0 0 0 -0.953126,0.869141 1.000005,1.000005 0 0 0 0.861329,1.123047 c 0,0 10.30544,1.367187 15.671879,1.367187 5.36643,0 15.67187,-1.367187 15.67187,-1.367187 a 1.000005,1.000005 0 0 0 0.86133,-1.123047 1.000005,1.000005 0 0 0 -1.12305,-0.861329 c 0,0 -10.39271,1.351563 -15.41015,1.351563 -5.017448,0 -15.412114,-1.351562 -15.412114,-1.351563 A 1.000005,1.000005 0 0 0 16.429688,31 Z" id="path3342" style="color:#000000;font-style:normal;font-variant:normal;font-weight:normal;font-stretch:normal;font-size:medium;line-height:normal;font-family:sans-serif;font-variant-ligatures:normal;font-variant-position:normal;font-variant-caps:normal;font-variant-numeric:normal;font-variant-alternates:normal;font-feature-settings:normal;text-indent:0;text-align:start;text-decoration:none;text-decoration-line:none;text-decoration-style:solid;text-decoration-color:#000000;letter-spacing:normal;word-spacing:normal;text-transform:none;writing-mode:lr-tb;direction:ltr;text-orientation:mixed;dominant-baseline:auto;baseline-shift:baseline;text-anchor:start;white-space:normal;shape-padding:0;clip-rule:nonzero;display:inline;overflow:visible;visibility:visible;isolation:auto;mix-blend-mode:normal;color-interpolation:sRGB;color-interpolation-filters:linearRGB;solid-color:#000000;solid-opacity:1;vector-effect:none;fill:#000000;fill-opacity:1;fill-rule:nonzero;stroke:none;stroke-width:2.00001;stroke-linecap:round;stroke-linejoin:round;stroke-miterlimit:4;stroke-dasharray:none;stroke-dashoffset:0;stroke-opacity:1;color-rendering:auto;image-rendering:auto;shape-rendering:auto;text-rendering:auto;enable-background:accumulate"/><path d="m 16.472656,37.794922 a 1.000005,1.000005 0 0 0 -0.970703,0.74414 1.000005,1.000005 0 0 0 0.710938,1.222657 c 0,0 2.600782,0.686038 5.859375,1.371093 3.258592,0.685056 7.151004,1.378907 9.937504,1.378907 2.78648,0 6.67695,-0.693851 9.93554,-1.378907 3.25859,-0.685055 5.85938,-1.371093 5.85938,-1.371093 a 1.000005,1.000005 0 0 0 0.71289,-1.222657 1.000005,1.000005 0 0 0 -1.22266,-0.710937 c 0,0 -2.55622,0.673764 -5.76172,1.347656 -3.20549,0.673892 -7.08364,1.335938 -9.52343,1.335938 -2.4398,0 -6.319902,-0.662046 -9.525395,-1.335938 -3.205493,-0.673892 -5.761719,-1.347656 -5.761719,-1.347656 a 1.000005,1.000005 0 0 0 -0.25,-0.0332 z" id="path3346" style="color:#000000;font-style:normal;font-variant:normal;font-weight:normal;font-stretch:normal;font-size:medium;line-height:normal;font-family:sans-serif;font-variant-ligatures:normal;font-variant-position:normal;font-variant-caps:normal;font-variant-numeric:normal;font-variant-alternates:normal;font-feature-settings:normal;text-indent:0;text-align:start;text-decoration:none;text-decoration-line:none;text-decoration-style:solid;text-decoration-color:#000000;letter-spacing:normal;word-spacing:normal;text-transform:none;writing-mode:lr-tb;direction:ltr;text-orientation:mixed;dominant-baseline:auto;baseline-shift:baseline;text-anchor:start;white-space:normal;shape-padding:0;clip-rule:nonzero;display:inline;overflow:visible;visibility:visible;isolation:auto;mix-blend-mode:normal;color-interpolation:sRGB;color-interpolation-filters:linearRGB;solid-color:#000000;solid-opacity:1;vector-effect:none;fill:#000000;fill-opacity:1;fill-rule:nonzero;stroke:none;stroke-width:2.00001;stroke-linecap:round;stroke-linejoin:round;stroke-miterlimit:4;stroke-dasharray:none;stroke-dashoffset:0;stroke-opacity:1;color-rendering:auto;image-rendering:auto;shape-rendering:auto;text-rendering:auto;enable-background:accumulate"/><path d="m 10.251953,20.128906 c -2.407812,0 -4.518155,1.466193 -5.960937,3.628906 C 2.848233,25.920526 1.998047,28.817627 1.998047,32 c 0,3.182372 0.850186,6.079474 2.292969,8.242188 1.442782,2.162713 3.553125,3.628906 5.960937,3.628906 a 1.000005,1.000005 0 0 0 1,-1 1.000005,1.000005 0 0 0 -1,-1 c -1.597694,0 -3.114728,-0.966257 -4.296875,-2.738282 C 4.772931,37.360788 3.998047,34.821834 3.998047,32 c 0,-2.821835 0.774884,-5.360788 1.957031,-7.132812 1.182147,-1.772025 2.699181,-2.738282 4.296875,-2.738282 a 1.000005,1.000005 0 0 0 1,-1 1.000005,1.000005 0 0 0 -1,-1 z" id="path3350" style="color:#000000;font-style:normal;font-variant:normal;font-weight:normal;font-stretch:normal;font-size:medium;line-height:normal;font-family:sans-serif;font-variant-ligatures:normal;font-variant-position:normal;font-variant-caps:normal;font-variant-numeric:normal;font-variant-alternates:normal;font-feature-settings:normal;text-indent:0;text-align:start;text-decoration:none;text-decoration-line:none;text-decoration-style:solid;text-decoration-color:#000000;letter-spacing:normal;word-spacing:normal;text-transform:none;writing-mode:lr-tb;direction:ltr;text-orientation:mixed;dominant-baseline:auto;baseline-shift:baseline;text-anchor:start;white-space:normal;shape-padding:0;clip-rule:nonzero;display:inline;overflow:visible;visibility:visible;isolation:auto;mix-blend-mode:normal;color-interpolation:sRGB;color-interpolation-filters:linearRGB;solid-color:#000000;solid-opacity:1;vector-effect:none;fill:#000000;fill-opacity:1;fill-rule:nonzero;stroke:none;stroke-width:2.00001;stroke-linecap:round;stroke-linejoin:round;stroke-miterlimit:4;stroke-dasharray:none;stroke-dashoffset:0;stroke-opacity:1;color-rendering:auto;image-rendering:auto;shape-rendering:auto;text-rendering:auto;enable-background:accumulate"/><path d="m 53.76758,20.128906 a 1.000005,1.000005 0 0 0 -1,1 1.000005,1.000005 0 0 0 1,1 c 1.59769,0 3.11473,0.966257 4.29687,2.738282 1.18215,1.772024 1.95508,4.310977 1.95508,7.132812 0,2.821834 -0.77293,5.360788 -1.95508,7.132812 -1.18214,1.772025 -2.69918,2.738282 -4.29687,2.738282 a 1.000005,1.000005 0 0 0 -1,1 1.000005,1.000005 0 0 0 1,1 c 2.40781,0 4.5162,-1.466193 5.95898,-3.628906 1.44278,-2.162714 2.29297,-5.059816 2.29297,-8.242188 0,-3.182373 -0.85019,-6.079474 -2.29297,-8.242188 -1.44278,-2.162713 -3.55117,-3.628906 -5.95898,-3.628906 z" id="path3354" style="color:#000000;font-style:normal;font-variant:normal;font-weight:normal;font-stretch:normal;font-size:medium;line-height:normal;font-family:sans-serif;font-variant-ligatures:normal;font-variant-position:normal;font-variant-caps:normal;font-variant-numeric:normal;font-variant-alternates:normal;font-feature-settings:normal;text-indent:0;text-align:start;text-decoration:none;text-decoration-line:none;text-decoration-style:solid;text-decoration-color:#000000;letter-spacing:normal;word-spacing:normal;text-transform:none;writing-mode:lr-tb;direction:ltr;text-orientation:mixed;dominant-baseline:auto;baseline-shift:baseline;text-anchor:start;white-space:normal;shape-padding:0;clip-rule:nonzero;display:inline;overflow:visible;visibility:visible;isolation:auto;mix-blend-mode:normal;color-interpolation:sRGB;color-interpolation-filters:linearRGB;solid-color:#000000;solid-opacity:1;vector-effect:none;fill:#000000;fill-opacity:1;fill-rule:nonzero;stroke:none;stroke-width:2.00001;stroke-linecap:round;stroke-linejoin:round;stroke-miterlimit:4;stroke-dasharray:none;stroke-dashoffset:0;stroke-opacity:1;color-rendering:auto;image-rendering:auto;shape-rendering:auto;text-rendering:auto;enable-background:accumulate"/></g></svg>