<?xml version="1.0" encoding="utf-8"?>
<!-- Generator: Adobe Illustrator 21.1.0, SVG Export Plug-In . SVG Version: 6.00 Build 0)  -->
<svg version="1.1" id="Layer_1" xmlns="http://www.w3.org/2000/svg" xmlns:xlink="http://www.w3.org/1999/xlink" x="0px" y="0px"
	 viewBox="0 0 32 32" style="enable-background:new 0 0 32 32;" xml:space="preserve">
<style type="text/css">
	.st0{fill:#252424;}
</style>
<g id="snapchat">
	<path id="ghost" class="st0" d="M16.2,27.7c-0.1,0-0.1,0-0.2,0h0c0,0-0.1,0-0.1,0c-1.2,0-2.4-0.5-3.4-1.3c-0.6-0.5-1.2-0.8-1.9-1
		c-0.3-0.1-0.7-0.1-1-0.1c-0.5,0-0.9,0.1-1.4,0.2c-0.2,0-0.3,0.1-0.5,0.1c-0.2,0-0.3-0.1-0.4-0.3c-0.1-0.2-0.1-0.4-0.1-0.6
		C7,24.3,6.9,24,6.7,23.9c-2.3-0.4-3-0.9-3.2-1.2c0,0,0-0.1,0-0.2c0-0.1,0.1-0.3,0.2-0.3C7.3,21.7,9,18,9,17.8l0,0
		c0.2-0.3,0.3-0.8,0.1-1.2c-0.2-0.6-1.1-0.8-1.6-1c-0.1,0-0.3-0.1-0.4-0.1c-1.1-0.4-1.2-0.9-1.1-1.1c0.2-0.4,0.6-0.7,1-0.6
		c0.1,0,0.2,0,0.3,0.1c0.4,0.2,0.8,0.3,1.3,0.3c0.3,0,0.6-0.1,0.8-0.2c0-0.2,0-0.5,0-0.8c-0.1-1.7-0.2-3.8,0.3-5
		c1.1-2.4,3.4-3.9,6.1-3.9c0,0,0.4,0,0.4,0l0.1,0c2.6,0,5,1.5,6.1,3.9c0.5,1.2,0.4,3.3,0.3,5l0,0.1c0,0.2,0,0.5,0,0.7
		c0.2,0.2,0.4,0.3,0.7,0.2h0c0.4,0,0.8-0.1,1.2-0.3c0.1-0.1,0.2-0.1,0.4-0.1c0.1,0,0.3,0,0.4,0.1l0,0c0.3,0.1,0.6,0.3,0.6,0.6
		c0,0.3-0.2,0.6-1.1,1c-0.1,0-0.2,0.1-0.4,0.1c-0.5,0.2-1.3,0.4-1.6,1c-0.1,0.4-0.1,0.8,0.1,1.2l0,0c0.1,0.2,1.7,3.8,5.3,4.4
		c0.1,0,0.2,0.1,0.2,0.3c0,0.1,0,0.1,0,0.2c-0.1,0.3-0.8,0.8-3.2,1.2c-0.2,0-0.3,0.3-0.4,0.8c0,0.2-0.1,0.4-0.1,0.6
		c0,0.2-0.2,0.3-0.3,0.3h0c-0.2,0-0.4,0-0.5-0.1c-0.5-0.1-0.9-0.1-1.4-0.1c-0.3,0-0.7,0-1,0.1c-0.7,0.2-1.4,0.5-1.9,1
		C18.6,27.2,17.4,27.7,16.2,27.7z"/>
	<path id="ghost-border" class="st0" d="M16.2,4.5c2.5,0,4.8,1.4,5.8,3.8c0.5,1.2,0.4,3.2,0.3,4.9c0,0.3,0,0.5,0,0.8l0,0.1l0.1,0.1
		c0.2,0.2,0.6,0.3,0.9,0.3l0,0l0,0c0.5,0,0.9-0.2,1.3-0.4c0.1,0,0.2-0.1,0.3,0c0.1,0,0.2,0,0.3,0.1l0,0c0.3,0.1,0.4,0.3,0.4,0.4
		c0,0.1-0.1,0.4-1,0.7c-0.1,0-0.2,0.1-0.3,0.1c-0.6,0.2-1.5,0.5-1.8,1.2c-0.2,0.5-0.1,1,0.1,1.4c0.1,0.2,1.8,4,5.5,4.6
		c0,0,0,0,0,0.1c-0.1,0.1-0.5,0.7-3,1.1c-0.4,0.1-0.5,0.5-0.6,1c0,0.2-0.1,0.4-0.1,0.6c0,0.1,0,0.1-0.1,0.1h0c-0.2,0-0.3,0-0.5-0.1
		c-0.5-0.1-1-0.2-1.5-0.2c-0.4,0-0.7,0-1.1,0.1c-0.8,0.2-1.5,0.5-2,1c-0.9,0.8-2,1.2-3.2,1.3c-0.1,0-0.1,0-0.2,0l0,0l0,0
		c0,0-0.1,0-0.1,0c-1.2-0.1-2.3-0.5-3.2-1.3c-0.6-0.5-1.3-0.9-2-1c-0.4-0.1-0.7-0.1-1.1-0.1c-0.5,0-1,0.1-1.5,0.2
		c-0.2,0-0.3,0.1-0.5,0.1c-0.1,0-0.1,0-0.1-0.1c-0.1-0.2-0.1-0.4-0.1-0.6c-0.1-0.5-0.2-1-0.6-1c-2.5-0.4-2.9-0.9-3-1.1
		c0,0,0,0,0-0.1c3.7-0.6,5.4-4.4,5.5-4.6c0.2-0.4,0.3-0.9,0.1-1.4c-0.3-0.7-1.2-1-1.8-1.2c-0.1,0-0.2-0.1-0.3-0.1
		c-0.8-0.3-1-0.6-1-0.8c0-0.2,0.4-0.4,0.7-0.4c0.1,0,0.1,0,0.2,0c0.4,0.2,0.9,0.3,1.4,0.4c0.4,0,0.7-0.1,1-0.3l0.1-0.1l0-0.1
		c0-0.2,0-0.5,0-0.8c-0.1-1.7-0.2-3.8,0.3-4.9c1-2.3,3.3-3.8,5.8-3.8C15.8,4.5,16.2,4.5,16.2,4.5L16.2,4.5 M16.2,4L16.2,4L16.2,4
		L16.2,4c-0.1,0-0.5,0-0.5,0C13,4,10.5,5.6,9.4,8.1C8.9,9.3,9,11.5,9.1,13.2c0,0.2,0,0.4,0,0.6C9,13.9,8.8,14,8.7,14
		c-0.4,0-0.8-0.1-1.2-0.3c-0.1-0.1-0.3-0.1-0.4-0.1c-0.6,0-1.1,0.3-1.2,0.9c-0.1,0.4,0.1,0.9,1.3,1.4c0.1,0,0.2,0.1,0.4,0.1
		c0.5,0.2,1.2,0.4,1.4,0.9C9,17.1,9,17.4,8.8,17.7l0,0c-0.1,0.2-1.6,3.7-5.1,4.3c-0.3,0-0.5,0.3-0.4,0.6c0,0.1,0,0.2,0.1,0.2
		c0.3,0.6,1.4,1.1,3.4,1.4c0.1,0.2,0.1,0.4,0.2,0.6c0,0.2,0.1,0.4,0.1,0.6c0.1,0.3,0.3,0.5,0.6,0.5c0.2,0,0.4,0,0.6-0.1
		c0.4-0.1,0.9-0.1,1.4-0.2c0.3,0,0.7,0,1,0.1c0.7,0.2,1.3,0.5,1.8,0.9c1,0.8,2.2,1.3,3.5,1.4c0,0,0.1,0,0.1,0c0.1,0,0.1,0,0.2,0
		c1.3-0.1,2.5-0.5,3.5-1.4c0.5-0.4,1.2-0.8,1.8-0.9c0.3-0.1,0.6-0.1,1-0.1c0.5,0,0.9,0.1,1.4,0.1c0.2,0,0.4,0.1,0.6,0.1l0,0h0
		c0.3,0,0.5-0.2,0.6-0.4c0.1-0.2,0.1-0.4,0.1-0.6c0-0.2,0.1-0.4,0.2-0.6c2-0.3,3.1-0.8,3.4-1.4c0-0.1,0.1-0.2,0.1-0.2
		c0-0.3-0.2-0.5-0.4-0.6c-3.5-0.6-5-4.1-5.1-4.3l0,0c-0.2-0.3-0.2-0.6-0.1-0.9c0.2-0.5,0.9-0.7,1.4-0.9c0.1,0,0.3-0.1,0.4-0.1
		c0.9-0.3,1.3-0.8,1.3-1.2c0-0.4-0.4-0.8-0.8-0.9l0,0c-0.2-0.1-0.4-0.1-0.5-0.1c-0.2,0-0.3,0-0.5,0.1c-0.3,0.2-0.7,0.3-1.1,0.3
		c-0.1,0-0.3,0-0.4-0.1c0-0.2,0-0.4,0-0.5l0-0.1c0.1-1.7,0.2-3.9-0.3-5.2C21.5,5.6,19,4,16.2,4z"/>
</g>
</svg>
